# xmcd
# 
# Track frame offsets:
#     150
#     22257
#     41257
#     74182
#     93797
#     120010
#     140095
#     156665
#     183805
# 
# Disc length: 2723
# 
# Revision: 3
# Processed by: cddbd v1.5.2PL0 Copyright (c) Steve Scherf et al.
# Submitted via: BonkEnc v1.0
# 
DISCID=790aa109
DTITLE=Great White - Once Bitten
DYEAR=1987
DGENRE=Rock
TTITLE0=Lady Red Light
TTITLE1=Gonna Getcha
TTITLE2=Rock Me
TTITLE3=All Over Now
TTITLE4=Mistreater
TTITLE5=Never Change Heart
TTITLE6=Fast Road
TTITLE7=On The Edge
TTITLE8=Save Your Love
EXTD=YEAR: 1987
EXTT0=
EXTT1=
EXTT2=
EXTT3=
EXTT4=
EXTT5=
EXTT6=
EXTT7=
EXTT8=
PLAYORDER=
